%TF.GenerationSoftware,KiCad,Pcbnew,8.0.8*%
%TF.CreationDate,2025-02-12T12:16:00+09:00*%
%TF.ProjectId,OpenMPW-TR10,4f70656e-4d50-4572-9d54-5231302e6b69,rev?*%
%TF.SameCoordinates,Original*%
%TF.FileFunction,Soldermask,Bot*%
%TF.FilePolarity,Negative*%
%FSLAX46Y46*%
G04 Gerber Fmt 4.6, Leading zero omitted, Abs format (unit mm)*
G04 Created by KiCad (PCBNEW 8.0.8) date 2025-02-12 12:16:00*
%MOMM*%
%LPD*%
G01*
G04 APERTURE LIST*
%ADD10R,1.700000X1.700000*%
%ADD11O,1.700000X1.700000*%
%ADD12C,3.200000*%
G04 APERTURE END LIST*
D10*
%TO.C,J5*%
X137300000Y-122000000D03*
D11*
X139840000Y-122000000D03*
%TD*%
D12*
%TO.C,H1*%
X130000000Y-120000000D03*
%TD*%
D10*
%TO.C,J4*%
X133700000Y-87300000D03*
D11*
X133700000Y-89840000D03*
X133700000Y-92380000D03*
X133700000Y-94920000D03*
X133700000Y-97460000D03*
X133700000Y-100000000D03*
X133700000Y-102540000D03*
X133700000Y-105080000D03*
X133700000Y-107620000D03*
X133700000Y-110160000D03*
X133700000Y-112700000D03*
%TD*%
D10*
%TO.C,J2*%
X166300000Y-112700000D03*
D11*
X166300000Y-110160000D03*
X166300000Y-107620000D03*
X166300000Y-105080000D03*
X166300000Y-102540000D03*
X166300000Y-100000000D03*
X166300000Y-97460000D03*
X166300000Y-94920000D03*
X166300000Y-92380000D03*
X166300000Y-89840000D03*
X166300000Y-87300000D03*
%TD*%
D10*
%TO.C,J3*%
X162700000Y-83700000D03*
D11*
X160160000Y-83700000D03*
X157620000Y-83700000D03*
X155080000Y-83700000D03*
X152540000Y-83700000D03*
X150000000Y-83700000D03*
X147460000Y-83700000D03*
X144920000Y-83700000D03*
X142380000Y-83700000D03*
X139840000Y-83700000D03*
X137300000Y-83700000D03*
%TD*%
D12*
%TO.C,H2*%
X170000000Y-120000000D03*
%TD*%
%TO.C,H3*%
X170000000Y-80000000D03*
%TD*%
%TO.C,H4*%
X130000000Y-80000000D03*
%TD*%
D10*
%TO.C,J1*%
X137300000Y-116300000D03*
D11*
X139840000Y-116300000D03*
X142380000Y-116300000D03*
X144920000Y-116300000D03*
X147460000Y-116300000D03*
X150000000Y-116300000D03*
X152540000Y-116300000D03*
X155080000Y-116300000D03*
X157620000Y-116300000D03*
X160160000Y-116300000D03*
X162700000Y-116300000D03*
%TD*%
M02*
