%TF.GenerationSoftware,KiCad,Pcbnew,8.0.8*%
%TF.CreationDate,2025-02-12T12:16:00+09:00*%
%TF.ProjectId,OpenMPW-TR10,4f70656e-4d50-4572-9d54-5231302e6b69,rev?*%
%TF.SameCoordinates,Original*%
%TF.FileFunction,Soldermask,Top*%
%TF.FilePolarity,Negative*%
%FSLAX46Y46*%
G04 Gerber Fmt 4.6, Leading zero omitted, Abs format (unit mm)*
G04 Created by KiCad (PCBNEW 8.0.8) date 2025-02-12 12:16:00*
%MOMM*%
%LPD*%
G01*
G04 APERTURE LIST*
%ADD10O,0.101600X0.630000*%
%ADD11O,0.630000X0.101600*%
%ADD12R,3.500000X3.500000*%
%ADD13R,1.700000X1.700000*%
%ADD14O,1.700000X1.700000*%
%ADD15C,3.200000*%
G04 APERTURE END LIST*
D10*
%TO.C,U1*%
X148892000Y-102185000D03*
X149113600Y-102185000D03*
X149335200Y-102185000D03*
X149556800Y-102185000D03*
X149778400Y-102185000D03*
X150000000Y-102185000D03*
X150221600Y-102185000D03*
X150443200Y-102185000D03*
X150664800Y-102185000D03*
X150886400Y-102185000D03*
X151108000Y-102185000D03*
D11*
X152185000Y-101108000D03*
X152185000Y-100886400D03*
X152185000Y-100664800D03*
X152185000Y-100443200D03*
X152185000Y-100221600D03*
X152185000Y-100000000D03*
X152185000Y-99778400D03*
X152185000Y-99556800D03*
X152185000Y-99335200D03*
X152185000Y-99113600D03*
X152185000Y-98892000D03*
D10*
X151108000Y-97815000D03*
X150886400Y-97815000D03*
X150664800Y-97815000D03*
X150443200Y-97815000D03*
X150221600Y-97815000D03*
X150000000Y-97815000D03*
X149778400Y-97815000D03*
X149556800Y-97815000D03*
X149335200Y-97815000D03*
X149113600Y-97815000D03*
X148892000Y-97815000D03*
D11*
X147815000Y-98892000D03*
X147815000Y-99113600D03*
X147815000Y-99335200D03*
X147815000Y-99556800D03*
X147815000Y-99778400D03*
X147815000Y-100000000D03*
X147815000Y-100221600D03*
X147815000Y-100443200D03*
X147815000Y-100664800D03*
X147815000Y-100886400D03*
X147815000Y-101108000D03*
D12*
X150000000Y-100000000D03*
%TD*%
D13*
%TO.C,J5*%
X137300000Y-122000000D03*
D14*
X139840000Y-122000000D03*
%TD*%
D15*
%TO.C,H1*%
X130000000Y-120000000D03*
%TD*%
D13*
%TO.C,J4*%
X133700000Y-87300000D03*
D14*
X133700000Y-89840000D03*
X133700000Y-92380000D03*
X133700000Y-94920000D03*
X133700000Y-97460000D03*
X133700000Y-100000000D03*
X133700000Y-102540000D03*
X133700000Y-105080000D03*
X133700000Y-107620000D03*
X133700000Y-110160000D03*
X133700000Y-112700000D03*
%TD*%
D13*
%TO.C,J2*%
X166300000Y-112700000D03*
D14*
X166300000Y-110160000D03*
X166300000Y-107620000D03*
X166300000Y-105080000D03*
X166300000Y-102540000D03*
X166300000Y-100000000D03*
X166300000Y-97460000D03*
X166300000Y-94920000D03*
X166300000Y-92380000D03*
X166300000Y-89840000D03*
X166300000Y-87300000D03*
%TD*%
D13*
%TO.C,J3*%
X162700000Y-83700000D03*
D14*
X160160000Y-83700000D03*
X157620000Y-83700000D03*
X155080000Y-83700000D03*
X152540000Y-83700000D03*
X150000000Y-83700000D03*
X147460000Y-83700000D03*
X144920000Y-83700000D03*
X142380000Y-83700000D03*
X139840000Y-83700000D03*
X137300000Y-83700000D03*
%TD*%
D15*
%TO.C,H2*%
X170000000Y-120000000D03*
%TD*%
%TO.C,H3*%
X170000000Y-80000000D03*
%TD*%
%TO.C,H4*%
X130000000Y-80000000D03*
%TD*%
D13*
%TO.C,J1*%
X137300000Y-116300000D03*
D14*
X139840000Y-116300000D03*
X142380000Y-116300000D03*
X144920000Y-116300000D03*
X147460000Y-116300000D03*
X150000000Y-116300000D03*
X152540000Y-116300000D03*
X155080000Y-116300000D03*
X157620000Y-116300000D03*
X160160000Y-116300000D03*
X162700000Y-116300000D03*
%TD*%
M02*
