M48
; DRILL file {KiCad 8.0.8} date 2025-02-12T12:16:04+0900
; FORMAT={-:-/ absolute / inch / decimal}
; #@! TF.CreationDate,2025-02-12T12:16:04+09:00
; #@! TF.GenerationSoftware,Kicad,Pcbnew,8.0.8
; #@! TF.FileFunction,Plated,1,2,PTH
FMAT,2
INCH
; #@! TA.AperFunction,Plated,PTH,ViaDrill
T1C0.0118
; #@! TA.AperFunction,Plated,PTH,ComponentDrill
T2C0.0394
%
G90
G05
T1
X5.9055Y-3.937
T2
X5.2638Y-3.437
X5.2638Y-3.537
X5.2638Y-3.637
X5.2638Y-3.737
X5.2638Y-3.837
X5.2638Y-3.937
X5.2638Y-4.037
X5.2638Y-4.137
X5.2638Y-4.237
X5.2638Y-4.337
X5.2638Y-4.437
X5.4055Y-3.2953
X5.4055Y-4.5787
X5.4055Y-4.8031
X5.5055Y-3.2953
X5.5055Y-4.5787
X5.5055Y-4.8031
X5.6055Y-3.2953
X5.6055Y-4.5787
X5.7055Y-3.2953
X5.7055Y-4.5787
X5.8055Y-3.2953
X5.8055Y-4.5787
X5.9055Y-3.2953
X5.9055Y-4.5787
X6.0055Y-3.2953
X6.0055Y-4.5787
X6.1055Y-3.2953
X6.1055Y-4.5787
X6.2055Y-3.2953
X6.2055Y-4.5787
X6.3055Y-3.2953
X6.3055Y-4.5787
X6.4055Y-3.2953
X6.4055Y-4.5787
X6.5472Y-3.437
X6.5472Y-3.537
X6.5472Y-3.637
X6.5472Y-3.737
X6.5472Y-3.837
X6.5472Y-3.937
X6.5472Y-4.037
X6.5472Y-4.137
X6.5472Y-4.237
X6.5472Y-4.337
X6.5472Y-4.437
M30
